<?xml version="1.0" encoding="UTF-8"?>
<svg width="693px" height="437px" viewBox="0 0 693 437" version="1.1" xmlns="http://www.w3.org/2000/svg" xmlns:xlink="http://www.w3.org/1999/xlink">
    <title>logo</title>
    <g id="Page-1" stroke="none" stroke-width="1" fill="none" fill-rule="evenodd">
        <g id="logo" transform="translate(0.000000, 0.000000)" fill-rule="nonzero">
            <path d="M387.5,136.1 C401.9,72.5 395.5,21.9 367.3,5.7 C360.8,1.9 353.2,0.1 344.9,0.1 L344.9,22.4 C349.5,22.4 353.2,23.3 356.3,25 C369.9,32.8 375.8,62.5 371.2,100.7 C370.1,110.1 368.3,120 366.1,130.1 C346.5,125.3 325.1,121.6 302.6,119.2 C289.1,100.7 275.1,83.9 261,69.2 C293.6,38.9 324.2,22.3 345,22.3 L345,0 C317.5,0 281.5,19.6 245.1,53.6 C208.7,19.8 172.7,0.4 145.2,0.4 L145.2,22.7 C165.9,22.7 196.6,39.2 229.2,69.3 C215.2,84 201.2,100.7 187.9,119.2 C165.3,121.6 143.9,125.3 124.3,130.2 C122,120.2 120.3,110.5 119.1,101.2 C114.4,63 120.2,33.3 133.7,25.4 C136.7,23.6 140.6,22.8 145.2,22.8 L145.2,0.5 C136.8,0.5 129.2,2.3 122.6,6.1 C94.5,22.3 88.2,72.8 102.7,136.2 C40.5,155.4 0,186.1 0,218.5 C0,251 40.7,281.8 103.1,300.9 C94.124071,340.543686 89.1721115,372.383298 96.6015625,396.742188 C101.091111,411.46204 112.677861,425.19792 123.3,431.3 C129.8,435.1 137.4,436.9 145.8,436.9 C173.3,436.9 209.3,417.3 245.7,383.3 C282.1,417.1 318.1,436.5 345.6,436.5 C354,436.5 361.6,434.7 368.2,430.9 C394.633063,415.66101 401.775833,370.070778 390.460692,311.942313 C389.74713,308.276582 388.960163,304.560989 388.1,300.8 C401.405081,296.701177 402.116848,297.076632 413.253906,292 C454.014136,273.420166 490.600077,243.947022 490.600077,218.5 C490.600077,186 449.9,155.2 387.5,136.1 Z M360.4,151.8 C356.7,164.7 352.1,178 346.9,191.3 C342.8,183.3 338.5,175.3 333.8,167.3 C329.2,159.3 324.3,151.5 319.4,143.9 C333.6,146 347.3,148.6 360.4,151.8 Z M314.6,258.3 C306.8,271.8 298.8,284.6 290.5,296.5 C275.6,297.8 260.5,298.5 245.3,298.5 C230.2,298.5 215.1,297.8 200.3,296.6 C192,284.7 183.9,272 176.1,258.6 C168.5,245.5 161.6,232.2 155.3,218.8 C161.5,205.4 168.5,192 176,178.9 C183.8,165.4 191.8,152.6 200.1,140.7 C215,139.4 230.1,138.7 245.3,138.7 C260.4,138.7 275.5,139.4 290.3,140.6 C298.6,152.5 306.7,165.2 314.5,178.6 C322.1,191.7 329,205 335.3,218.4 C329,231.8 322.1,245.2 314.6,258.3 Z M346.9,245.3 C352.3,258.7 356.9,272.1 360.7,285.1 C347.6,288.3 333.8,291 319.5,293.1 C324.4,285.4 329.3,277.5 333.9,269.4 C338.5,261.4 342.8,253.3 346.9,245.3 Z M245.5,352 C236.2,342.4 226.9,331.7 217.7,320 C226.7,320.4 235.9,320.7 245.2,320.7 C254.6,320.7 263.9,320.5 273,320 C264,331.7 254.7,342.4 245.5,352 Z M171.1,293.1 C156.9,291 143.2,288.4 130.1,285.2 C133.8,272.3 138.4,259 143.6,245.7 C147.7,253.7 152,261.7 156.7,269.7 C161.4,277.7 166.2,285.5 171.1,293.1 Z M245,85 C254.3,94.6 263.6,105.3 272.8,117 C263.8,116.6 254.6,116.3 245.3,116.3 C235.9,116.3 226.6,116.5 217.5,117 C226.5,105.3 235.8,94.6 245,85 Z M171,143.9 C166.1,151.6 161.2,159.5 156.6,167.6 C152,175.6 147.7,183.6 143.6,191.6 C138.2,178.2 133.6,164.8 129.8,151.8 C142.9,148.7 156.7,146 171,143.9 Z M80.5,269.1 C45.1,254 22.2,234.2 22.2,218.5 C22.2,202.8 45.1,182.9 80.5,167.9 C89.1,164.2 98.5,160.9 108.2,157.8 C113.9,177.4 121.4,197.8 130.7,218.7 C121.5,239.5 114.1,259.8 108.5,279.3 C98.6,276.2 89.2,272.8 80.5,269.1 Z M119.4,336.3 C120.5,326.9 122.3,317 124.5,306.9 C144.1,311.7 165.5,315.4 188,317.8 C201.5,336.3 215.5,353.1 229.6,367.8 C197,398.1 166.4,414.7 145.6,414.7 C141.1,414.6 137.3,413.7 134.3,412 C100.73783,392.981437 114.916356,374.614774 119.4,336.3 Z M356.9,411.6 C353.9,413.4 350,414.2 345.4,414.2 C324.7,414.2 294,397.7 261.4,367.6 C275.4,352.9 289.4,336.2 302.7,317.7 C325.3,315.3 346.7,311.6 366.3,306.7 C368.6,316.8 370.4,326.5 371.5,335.8 C376.2,374 370.4,403.7 356.9,411.6 Z M383.3,279.2 C377.6,259.6 370.1,239.2 360.8,218.3 C370,197.5 377.4,177.2 383,157.7 C392.9,160.8 402.3,164.2 411.1,167.9 C446.5,183 469.4,202.8 469.4,218.5 C469.3,234.2 446.4,254.1 411,269.1 C402.4,272.8 393,276.1 383.3,279.2 Z" id="Shape" fill="#F9F9F9"></path>
            <circle id="Oval" fill="#DE3625" cx="245.2" cy="218.5" r="45.7"></circle>
        </g>
        <path d="M245.7,174.129776 L258.79886,200.670966 L288.088802,204.927043 L266.894401,225.586478 L271.897721,254.758069 L245.7,240.985112 L219.502279,254.758069 L224.505599,225.586478 L203.311198,204.927043 L232.60114,200.670966 L245.7,174.129776 Z" id="Star" stroke="#979797" fill="#E4EE0A"></path>
        <text id="MN" fill="#F8F7F7" fill-rule="nonzero" font-family="MarkerFelt-Thin, Marker Felt" font-size="72" font-weight="300">
            <tspan x="535" y="230">MN</tspan>
        </text>
    </g>
</svg>